<svg xmlns="http://www.w3.org/2000/svg" viewBox="0 0 960 1980" role="img" aria-labelledby="title desc">
  <title id="title">2D AI Chat preview</title>
  <desc id="desc">A pastel iPhone style chat screen inspired by the provided app screenshot.</desc>
  <defs>
    <linearGradient id="bg" x1="0%" y1="0%" x2="100%" y2="100%">
      <stop offset="0%" stop-color="#f0e8f5"/>
      <stop offset="45%" stop-color="#d9b3ea"/>
      <stop offset="100%" stop-color="#8fd4f5"/>
    </linearGradient>
    <linearGradient id="bubble" x1="0%" y1="0%" x2="100%" y2="0%">
      <stop offset="0%" stop-color="#ff3477"/>
      <stop offset="100%" stop-color="#6e83ff"/>
    </linearGradient>
    <linearGradient id="meter" x1="0%" y1="0%" x2="0%" y2="100%">
      <stop offset="0%" stop-color="#73b7ff"/>
      <stop offset="55%" stop-color="#ff4a79"/>
      <stop offset="100%" stop-color="#ff3556"/>
    </linearGradient>
    <linearGradient id="glass" x1="0%" y1="0%" x2="100%" y2="100%">
      <stop offset="0%" stop-color="#ffffff" stop-opacity=".34"/>
      <stop offset="100%" stop-color="#ffffff" stop-opacity=".14"/>
    </linearGradient>
  </defs>
  <rect width="960" height="1980" fill="url(#bg)"/>
  <text x="78" y="78" font-family="Arial, sans-serif" font-size="34" font-weight="700" fill="#111111">15:49</text>
  <rect x="56" y="146" width="268" height="78" rx="38" fill="url(#glass)" stroke="#ffffff" stroke-opacity=".25" stroke-width="3"/>
  <rect x="674" y="146" width="232" height="74" rx="37" fill="url(#glass)" stroke="#ffffff" stroke-opacity=".25" stroke-width="3"/>
  <circle cx="724" cy="183" r="12" fill="#ff3d65"/>
  <text x="120" y="196" font-family="Arial, sans-serif" font-size="28" font-weight="700" fill="#1a1220">Chat</text>
  <text x="760" y="194" font-family="Arial, sans-serif" font-size="26" font-weight="700" fill="#1a1220">mode</text>
  <path d="M104 182l10-20 6 12 14 2-12 10 2 14-10-8-12 8 4-14-12-10 14-2z" fill="#ff426d"/>
  <rect x="48" y="314" width="814" height="604" rx="58" fill="url(#glass)" stroke="#ffffff" stroke-opacity=".18" stroke-width="3"/>
  <rect x="284" y="354" width="382" height="554" rx="6" fill="#f3d0df"/>
  <rect x="314" y="390" width="322" height="482" rx="6" fill="#f7dbe7"/>
  <rect x="312" y="392" width="326" height="154" fill="#cfd9e8"/>
  <circle cx="476" cy="560" r="86" fill="#ffe6d9"/>
  <path d="M374 544c24-88 66-134 102-134s78 46 102 134c-30 34-68 50-102 50s-72-16-102-50z" fill="#241b28"/>
  <rect x="400" y="656" width="152" height="188" rx="42" fill="#2f3965"/>
  <rect x="356" y="632" width="240" height="86" rx="40" fill="#33406f"/>
  <rect x="340" y="736" width="272" height="98" rx="44" fill="#556694"/>
  <rect x="858" y="356" width="72" height="564" rx="36" fill="url(#glass)" stroke="#ffffff" stroke-opacity=".18" stroke-width="3"/>
  <rect x="858" y="764" width="72" height="156" rx="36" fill="url(#meter)"/>
  <rect x="48" y="952" width="814" height="760" rx="52" fill="url(#glass)" stroke="#ffffff" stroke-opacity=".16" stroke-width="3"/>
  <path d="M94 1032h520c30 0 54 24 54 54v126c0 30-24 54-54 54H94c-30 0-54-24-54-54v-126c0-30 24-54 54-54z" fill="#f6f4ff" fill-opacity=".46" stroke="#ffffff" stroke-opacity=".18" stroke-width="3"/>
  <path d="M668 1116l42 22-42 22z" fill="#f6f4ff" fill-opacity=".42"/>
  <text x="94" y="1128" font-family="Arial, sans-serif" font-size="34" font-weight="700" fill="#0f0f14">Hi there!</text>
  <text x="94" y="1180" font-family="Arial, sans-serif" font-size="30" font-weight="500" fill="#0f0f14">What should we talk</text>
  <text x="94" y="1222" font-family="Arial, sans-serif" font-size="30" font-weight="500" fill="#0f0f14">about today?</text>
  <path d="M520 1298h260c30 0 54 24 54 54v98c0 30-24 54-54 54H520c-30 0-54-24-54-54v-98c0-30 24-54 54-54z" fill="url(#bubble)"/>
  <path d="M466 1362l-30 20 30 20z" fill="#ff86b2"/>
  <text x="560" y="1388" font-family="Arial, sans-serif" font-size="30" font-weight="700" fill="#ffffff">hello</text>
  <rect x="82" y="1546" width="164" height="92" rx="44" fill="#f4f8ff" fill-opacity=".28" stroke="#ffffff" stroke-opacity=".18" stroke-width="3"/>
  <circle cx="136" cy="1592" r="12" fill="#7890c0"/>
  <circle cx="178" cy="1592" r="12" fill="#7890c0"/>
  <circle cx="220" cy="1592" r="12" fill="#7890c0"/>
  <rect x="48" y="1792" width="680" height="102" rx="48" fill="#f4fbff" fill-opacity=".24" stroke="#ffffff" stroke-opacity=".18" stroke-width="3"/>
  <circle cx="118" cy="1842" r="22" fill="#ff456b"/>
  <rect x="756" y="1786" width="156" height="116" rx="38" fill="#d4e2e6" fill-opacity=".24"/>
  <path d="M806 1846l54-24-20 50-12-22-22-4z" fill="#ffffff" fill-opacity=".42"/>
</svg>
