<svg xmlns="http://www.w3.org/2000/svg" viewBox="0 0 900 1200" role="img" aria-labelledby="title desc">
  <title id="title">2D AI Chat preview</title>
  <desc id="desc">Pastel gradient chat screen with a character panel and message bubbles.</desc>
  <defs>
    <linearGradient id="bg" x1="0%" y1="0%" x2="100%" y2="100%">
      <stop offset="0%" stop-color="#efe8f7"/>
      <stop offset="48%" stop-color="#d9b9e7"/>
      <stop offset="100%" stop-color="#9ed9f6"/>
    </linearGradient>
    <linearGradient id="accent" x1="0%" y1="0%" x2="100%" y2="0%">
      <stop offset="0%" stop-color="#ff3f7d"/>
      <stop offset="100%" stop-color="#6f7bff"/>
    </linearGradient>
    <linearGradient id="meter" x1="0%" y1="0%" x2="0%" y2="100%">
      <stop offset="0%" stop-color="#7cb8ff"/>
      <stop offset="55%" stop-color="#ff4b7c"/>
      <stop offset="100%" stop-color="#ff3052"/>
    </linearGradient>
  </defs>
  <rect width="900" height="1200" rx="44" fill="url(#bg)"/>
  <rect x="48" y="70" width="250" height="78" rx="39" fill="#ffffff" fill-opacity=".38" stroke="#ffffff" stroke-opacity=".28" stroke-width="3"/>
  <rect x="620" y="70" width="232" height="74" rx="37" fill="#ffffff" fill-opacity=".36" stroke="#ffffff" stroke-opacity=".28" stroke-width="3"/>
  <circle cx="668" cy="107" r="12" fill="#ff3d65"/>
  <text x="110" y="118" font-family="Arial, sans-serif" font-size="28" font-weight="700" fill="#ff3d65">Spark</text>
  <text x="650" y="118" font-family="Arial, sans-serif" font-size="28" font-weight="700" fill="#2a2140">Calm</text>
  <rect x="46" y="190" width="760" height="520" rx="58" fill="#ffffff" fill-opacity=".18" stroke="#ffffff" stroke-opacity=".22" stroke-width="3"/>
  <rect x="270" y="230" width="360" height="420" rx="30" fill="#f7d2e2" fill-opacity=".5"/>
  <circle cx="450" cy="365" r="94" fill="#ffe8da"/>
  <rect x="372" y="470" width="156" height="140" rx="36" fill="#2b3b6f"/>
  <rect x="350" y="435" width="200" height="70" rx="32" fill="#2d3658"/>
  <rect x="335" y="510" width="230" height="86" rx="40" fill="#4d5d8e"/>
  <path d="M336 357c18-53 66-92 114-92 48 0 96 39 114 92-36 28-72 40-114 40s-78-12-114-40z" fill="#221d30"/>
  <path d="M396 258c12-26 34-42 54-42 20 0 42 16 54 42-18 16-36 24-54 24s-36-8-54-24z" fill="#1f1a2a"/>
  <rect x="806" y="198" width="74" height="510" rx="37" fill="#ffffff" fill-opacity=".18" stroke="#ffffff" stroke-opacity=".22" stroke-width="3"/>
  <rect x="806" y="550" width="74" height="158" rx="37" fill="url(#meter)"/>
  <rect x="46" y="740" width="760" height="372" rx="52" fill="#ffffff" fill-opacity=".14" stroke="#ffffff" stroke-opacity=".2" stroke-width="3"/>
  <path d="M118 792h398c28 0 50 22 50 50v72c0 28-22 50-50 50H118c-28 0-50-22-50-50v-72c0-28 22-50 50-50z" fill="#ffffff" fill-opacity=".36" stroke="#ffffff" stroke-opacity=".22" stroke-width="3"/>
  <path d="M566 840l30 20-30 20z" fill="#ffffff" fill-opacity=".36"/>
  <path d="M520 954h214c28 0 50 22 50 50v64c0 28-22 50-50 50H520c-28 0-50-22-50-50v-64c0-28 22-50 50-50z" fill="url(#accent)"/>
  <path d="M470 996l-28 18 28 18z" fill="#ffffff" fill-opacity=".34"/>
  <rect x="80" y="1010" width="150" height="78" rx="39" fill="#ffffff" fill-opacity=".22" stroke="#ffffff" stroke-opacity=".2" stroke-width="3"/>
  <circle cx="126" cy="1048" r="12" fill="#7d93c7"/>
  <circle cx="166" cy="1048" r="12" fill="#7d93c7"/>
  <circle cx="206" cy="1048" r="12" fill="#7d93c7"/>
  <rect x="46" y="1140" width="640" height="74" rx="37" fill="#ffffff" fill-opacity=".2" stroke="#ffffff" stroke-opacity=".22" stroke-width="3"/>
  <circle cx="112" cy="1177" r="20" fill="#ff486c"/>
  <rect x="712" y="1136" width="142" height="82" rx="34" fill="#ffffff" fill-opacity=".16"/>
  <path d="M758 1177l48-22-18 44-10-20-20-2z" fill="#ffffff" fill-opacity=".48"/>
</svg>
