<svg xmlns="http://www.w3.org/2000/svg" viewBox="0 0 900 1200" role="img" aria-labelledby="title desc">
  <title id="title">battle-app preview</title>
  <desc id="desc">Light blue game dashboard with rank panel, creature slots, and stat cards.</desc>
  <defs>
    <linearGradient id="sky" x1="0%" y1="0%" x2="100%" y2="100%">
      <stop offset="0%" stop-color="#c8e4fb"/>
      <stop offset="100%" stop-color="#e4f1f8"/>
    </linearGradient>
    <linearGradient id="panel" x1="0%" y1="0%" x2="100%" y2="100%">
      <stop offset="0%" stop-color="#ffffff"/>
      <stop offset="100%" stop-color="#f2f7fb"/>
    </linearGradient>
    <linearGradient id="button" x1="0%" y1="0%" x2="100%" y2="100%">
      <stop offset="0%" stop-color="#4f7fb2"/>
      <stop offset="100%" stop-color="#62b0ed"/>
    </linearGradient>
  </defs>
  <rect width="900" height="1200" rx="44" fill="url(#sky)"/>
  <circle cx="820" cy="110" r="350" fill="#b8d9f2" fill-opacity=".45"/>
  <circle cx="-40" cy="910" r="260" fill="#b8d9f2" fill-opacity=".42"/>
  <rect x="34" y="76" width="832" height="170" rx="42" fill="url(#panel)" stroke="#7a93ad" stroke-width="3"/>
  <text x="58" y="132" font-family="Arial, sans-serif" font-size="28" font-weight="800" fill="#15224f">MONSTER FRONTIER</text>
  <rect x="550" y="96" width="190" height="52" rx="26" fill="#ffffff" stroke="#7cb8ed" stroke-width="3"/>
  <rect x="756" y="96" width="100" height="52" rx="26" fill="#ffffff" stroke="#7cb8ed" stroke-width="3"/>
  <rect x="56" y="148" width="788" height="78" rx="28" fill="#f8fbfe" stroke="#7cb8ed" stroke-width="3"/>
  <circle cx="108" cy="187" r="24" fill="url(#button)"/>
  <rect x="150" y="166" width="270" height="20" rx="10" fill="#15224f"/>
  <rect x="150" y="194" width="390" height="18" rx="9" fill="#15224f" fill-opacity=".9"/>
  <rect x="76" y="216" width="662" height="12" rx="6" fill="#7cb8ed"/>
  <rect x="34" y="314" width="832" height="292" rx="40" fill="#f7fbff" fill-opacity=".7" stroke="#67a8e5" stroke-width="3"/>
  <circle cx="188" cy="456" r="86" fill="#fdf6de" stroke="#e7cc73" stroke-width="8"/>
  <path d="M188 364l24 52 56 8-40 38 10 56-50-26-50 26 10-56-40-38 56-8z" fill="#fff4b3"/>
  <circle cx="450" cy="454" r="84" fill="#eef7ff" stroke="#8abfff" stroke-width="8"/>
  <path d="M450 372l24 44 48 8-36 36 8 48-44-22-44 22 8-48-36-36 48-8z" fill="#d8ecff"/>
  <circle cx="710" cy="454" r="82" fill="#dceeff" stroke="#5d8ddb" stroke-width="8"/>
  <path d="M710 384l26 44 50 8-38 38 10 50-48-24-48 24 10-50-38-38 50-8z" fill="#7ea9ff"/>
  <rect x="34" y="634" width="832" height="378" rx="44" fill="url(#panel)" stroke="#8a9ab0" stroke-width="3"/>
  <rect x="62" y="710" width="776" height="80" rx="24" fill="#fdfefe" stroke="#b8d8f4" stroke-width="3"/>
  <rect x="62" y="810" width="776" height="80" rx="24" fill="#fdfefe" stroke="#b8d8f4" stroke-width="3"/>
  <rect x="62" y="910" width="776" height="80" rx="24" fill="#fdfefe" stroke="#b8d8f4" stroke-width="3"/>
  <rect x="34" y="1042" width="270" height="136" rx="26" fill="url(#panel)" stroke="#b8d8f4" stroke-width="3"/>
  <rect x="318" y="1042" width="264" height="136" rx="26" fill="url(#panel)" stroke="#b8d8f4" stroke-width="3"/>
  <rect x="596" y="1042" width="270" height="136" rx="26" fill="url(#panel)" stroke="#b8d8f4" stroke-width="3"/>
</svg>
