<svg xmlns="http://www.w3.org/2000/svg" width="980" height="520" viewBox="0 0 980 520">
  <defs>
    <linearGradient id="g1" x1="0" y1="0" x2="1" y2="1">
      <stop offset="0" stop-color="#7f5cff" stop-opacity="0.95"/>
      <stop offset="0.55" stop-color="#00ffd5" stop-opacity="0.70"/>
      <stop offset="1" stop-color="#ff3bd4" stop-opacity="0.65"/>
    </linearGradient>
    <linearGradient id="glass" x1="0" y1="0" x2="0" y2="1">
      <stop offset="0" stop-color="#ffffff" stop-opacity="0.12"/>
      <stop offset="1" stop-color="#ffffff" stop-opacity="0.03"/>
    </linearGradient>
    <filter id="blur" x="-30%" y="-30%" width="160%" height="160%"><feGaussianBlur stdDeviation="14"/></filter>
    <filter id="soft" x="-30%" y="-30%" width="160%" height="160%"><feGaussianBlur stdDeviation="6"/></filter>
  </defs>

  <rect x="18" y="18" width="944" height="484" rx="34" fill="rgba(255,255,255,0.05)" stroke="rgba(255,255,255,0.16)"/>
  <rect x="36" y="36" width="908" height="448" rx="28" fill="rgba(0,0,0,0.22)"/>

  <g filter="url(#blur)" opacity="0.62">
    <path d="M110 130 C 270 10, 380 220, 540 120 S 830 120, 900 70" stroke="url(#g1)" stroke-width="18" fill="none" stroke-linecap="round"/>
    <path d="M90 400 C 260 250, 380 490, 560 360 S 835 360, 915 420" stroke="url(#g1)" stroke-width="16" fill="none" stroke-linecap="round"/>
  </g>

  <g>
    <rect x="72" y="70" width="220" height="44" rx="14" fill="url(#glass)" stroke="rgba(255,255,255,0.14)"/>
    <rect x="86" y="86" width="140" height="12" rx="999" fill="rgba(255,255,255,0.22)"/>
    <circle cx="262" cy="92" r="6" fill="rgba(0,255,213,0.9)"/>
    <circle cx="280" cy="92" r="6" fill="rgba(127,92,255,0.9)"/>
  </g>

  <g>
    <rect x="72" y="130" width="396" height="330" rx="22" fill="rgba(255,255,255,0.04)" stroke="rgba(255,255,255,0.12)"/>
    <rect x="92" y="156" width="330" height="12" rx="999" fill="rgba(255,255,255,0.14)"/>
    <rect x="92" y="182" width="280" height="12" rx="999" fill="rgba(255,255,255,0.10)"/>
    <rect x="92" y="208" width="310" height="12" rx="999" fill="rgba(255,255,255,0.08)"/>

    <g filter="url(#soft)">
      <rect x="92" y="246" width="160" height="96" rx="18" fill="rgba(0,255,213,0.08)" stroke="rgba(0,255,213,0.22)"/>
      <rect x="268" y="246" width="180" height="96" rx="18" fill="rgba(127,92,255,0.08)" stroke="rgba(127,92,255,0.22)"/>
      <rect x="92" y="356" width="356" height="82" rx="18" fill="rgba(255,59,212,0.06)" stroke="rgba(255,59,212,0.18)"/>
    </g>
  </g>

  <g>
    <rect x="502" y="130" width="406" height="192" rx="22" fill="rgba(255,255,255,0.045)" stroke="rgba(255,255,255,0.12)"/>
    <rect x="526" y="156" width="292" height="12" rx="999" fill="rgba(255,255,255,0.12)"/>
    <rect x="526" y="182" width="248" height="12" rx="999" fill="rgba(255,255,255,0.09)"/>
    <rect x="526" y="208" width="318" height="12" rx="999" fill="rgba(255,255,255,0.07)"/>

    <rect x="526" y="242" width="354" height="18" rx="999" fill="rgba(255,255,255,0.05)" stroke="rgba(255,255,255,0.10)"/>
    <rect x="526" y="242" width="212" height="18" rx="999" fill="url(#g1)" opacity="0.75"/>
    <circle cx="860" cy="156" r="7" fill="rgba(0,255,213,0.92)"/>
  </g>

  <g>
    <rect x="502" y="336" width="406" height="124" rx="22" fill="rgba(255,255,255,0.04)" stroke="rgba(255,255,255,0.12)"/>
    <rect x="526" y="362" width="318" height="12" rx="999" fill="rgba(255,255,255,0.10)"/>
    <rect x="526" y="388" width="280" height="12" rx="999" fill="rgba(255,255,255,0.08)"/>
    <rect x="526" y="414" width="232" height="12" rx="999" fill="rgba(255,255,255,0.06)"/>
  </g>
</svg>
