<svg xmlns="http://www.w3.org/2000/svg" width="980" height="520" viewBox="0 0 980 520">
  <defs>
    <linearGradient id="bg" x1="0" y1="0" x2="1" y2="1">
      <stop offset="0" stop-color="#7f5cff" stop-opacity="0.85"/>
      <stop offset="0.55" stop-color="#00ffd5" stop-opacity="0.55"/>
      <stop offset="1" stop-color="#ff3bd4" stop-opacity="0.55"/>
    </linearGradient>
    <radialGradient id="glow" cx="35%" cy="20%" r="75%">
      <stop offset="0" stop-color="#ffffff" stop-opacity="0.35"/>
      <stop offset="0.38" stop-color="#00ffd5" stop-opacity="0.18"/>
      <stop offset="1" stop-color="#000000" stop-opacity="0"/>
    </radialGradient>
    <filter id="blur" x="-20%" y="-20%" width="140%" height="140%">
      <feGaussianBlur stdDeviation="10"/>
    </filter>
  </defs>

  <rect x="18" y="18" width="944" height="484" rx="34" fill="rgba(255,255,255,0.06)" stroke="rgba(255,255,255,0.16)"/>
  <rect x="34" y="34" width="912" height="452" rx="28" fill="rgba(0,0,0,0.22)"/>
  <rect x="34" y="34" width="912" height="452" rx="28" fill="url(#glow)"/>

  <g opacity="0.55" filter="url(#blur)">
    <path d="M80 120 C 260 10, 370 220, 520 120 S 820 120, 900 70" stroke="url(#bg)" stroke-width="16" fill="none" stroke-linecap="round"/>
    <path d="M70 390 C 240 250, 360 480, 540 360 S 820 360, 910 420" stroke="url(#bg)" stroke-width="14" fill="none" stroke-linecap="round"/>
  </g>

  <g opacity="0.9">
    <rect x="80" y="86" width="360" height="96" rx="18" fill="rgba(255,255,255,0.07)" stroke="rgba(255,255,255,0.14)"/>
    <rect x="98" y="110" width="210" height="10" rx="999" fill="rgba(255,255,255,0.18)"/>
    <rect x="98" y="134" width="290" height="10" rx="999" fill="rgba(255,255,255,0.12)"/>
    <rect x="98" y="158" width="170" height="10" rx="999" fill="rgba(255,255,255,0.10)"/>

    <rect x="80" y="206" width="360" height="228" rx="18" fill="rgba(255,255,255,0.05)" stroke="rgba(255,255,255,0.12)"/>
    <rect x="98" y="232" width="310" height="12" rx="999" fill="rgba(255,255,255,0.12)"/>
    <rect x="98" y="262" width="270" height="12" rx="999" fill="rgba(255,255,255,0.10)"/>
    <rect x="98" y="292" width="290" height="12" rx="999" fill="rgba(255,255,255,0.08)"/>
    <rect x="98" y="322" width="240" height="12" rx="999" fill="rgba(255,255,255,0.08)"/>
    <rect x="98" y="352" width="300" height="12" rx="999" fill="rgba(255,255,255,0.06)"/>
    <rect x="98" y="382" width="180" height="12" rx="999" fill="rgba(255,255,255,0.06)"/>

    <rect x="478" y="86" width="422" height="162" rx="18" fill="rgba(255,255,255,0.06)" stroke="rgba(255,255,255,0.14)"/>
    <g>
      <circle cx="520" cy="142" r="22" fill="rgba(0,255,213,0.42)"/>
      <circle cx="520" cy="142" r="10" fill="rgba(0,255,213,0.95)"/>
      <circle cx="588" cy="142" r="22" fill="rgba(127,92,255,0.38)"/>
      <circle cx="588" cy="142" r="10" fill="rgba(127,92,255,0.95)"/>
      <circle cx="656" cy="142" r="22" fill="rgba(255,59,212,0.30)"/>
      <circle cx="656" cy="142" r="10" fill="rgba(255,59,212,0.92)"/>
    </g>
    <rect x="720" y="122" width="160" height="10" rx="999" fill="rgba(255,255,255,0.12)"/>
    <rect x="720" y="146" width="120" height="10" rx="999" fill="rgba(255,255,255,0.10)"/>
    <rect x="720" y="170" width="140" height="10" rx="999" fill="rgba(255,255,255,0.08)"/>

    <rect x="478" y="270" width="422" height="164" rx="18" fill="rgba(255,255,255,0.05)" stroke="rgba(255,255,255,0.12)"/>
    <rect x="498" y="292" width="260" height="12" rx="999" fill="rgba(255,255,255,0.10)"/>
    <rect x="498" y="324" width="340" height="12" rx="999" fill="rgba(255,255,255,0.08)"/>
    <rect x="498" y="356" width="300" height="12" rx="999" fill="rgba(255,255,255,0.06)"/>
    <rect x="498" y="388" width="220" height="12" rx="999" fill="rgba(255,255,255,0.06)"/>
  </g>

  <g opacity="0.8">
    <path d="M50 60 H930" stroke="rgba(255,255,255,0.08)" stroke-width="1"/>
    <path d="M50 460 H930" stroke="rgba(255,255,255,0.08)" stroke-width="1"/>
  </g>
</svg>
